<?xml version="1.0" encoding="UTF-8" standalone="no"?>
<!-- Created with Inkscape (http://www.inkscape.org/) -->

<svg
   version="1.1"
   id="svg1"
   width="500"
   height="500"
   viewBox="0 0 500 500"
   xmlns="http://www.w3.org/2000/svg"
   xmlns:svg="http://www.w3.org/2000/svg">
  <defs
     id="defs1" />
  <g
     id="g1">
    <path
       style="fill:#000000"
       d="m -273.6168,923.77667 c -2.171,-0.7492 -4.5911,-2.8076 -6.5,-5.5287 -3.0001,-4.2765 -3.0413,-4.5068 -3.0413,-17.00003 0,-10.68633 0.3124,-13.27961 2,-16.60028 2.7746,-5.45969 6.3914,-7.8173 12.7085,-8.2842 9.0108,-0.66599 14.6503,3.81376 16.3273,12.96966 l 0.6868,3.75 h -4.5029 c -4.076,0 -4.5682,-0.26016 -5.1917,-2.7444 -0.9769,-3.89246 -2.3841,-5.25786 -5.4004,-5.24028 -5.6761,0.0331 -7.1315,3.23929 -7.1129,15.66894 0.017,10.96469 1.1237,14.28879 5.2421,15.73709 2.2562,0.7935 3.1385,0.5559 5.2287,-1.4077 1.383,-1.2993 2.5145,-3.4088 2.5145,-4.688 0,-2.0995 0.4505,-2.3256 4.6317,-2.3256 h 4.6316 l -0.5584,4.1634 c -1.3469,10.0416 -11.0349,15.1979 -21.6636,11.5301 z m 91.563,0.268 c -4.3719,-1.3082 -8.3601,-5.7103 -10.2045,-11.2633 -2.3542,-7.08781 -1.5625,-22.54142 1.4567,-28.43479 4.8891,-9.54324 19.3563,-11.13149 26.32,-2.88947 6.625,7.84117 6.1631,31.48706 -0.7562,38.70926 -4.1457,4.3271 -10.4542,5.7821 -16.816,3.8783 z m 9.0899,-9.3734 c 2.6732,-2.2978 2.8198,-2.877 3.1018,-12.25001 0.2382,-7.91554 -0.055,-10.52154 -1.5,-13.3352 -2.708,-5.2729 -8.8631,-5.44318 -11.202,-0.30991 -1.8222,3.99937 -1.6002,20.42742 0.3264,24.15312 2.4561,4.7496 5.1799,5.2612 9.2738,1.742 z m 270.805797,9.2056 c -1.65,-0.5766 -3.9668,-1.9265 -5.1484,-2.9999 -2.1134,-1.9198 -4.6384,-9.1737 -3.5664,-10.2457 0.3015,-0.3015 2.4494,-0.5481 4.7731,-0.5481 3.6877,0 4.3058,0.3222 4.8609,2.534 1.285903,5.1236 9.554603,5.8124 11.756703,0.9793 1.7074,-3.7473 -0.9073,-6.78283 -8.1024,-9.40629 -9.476703,-3.45538 -11.382203,-5.57891 -11.864303,-13.22233 -0.3458,-5.48245 -0.083,-6.79048 1.862,-9.25591 4.2094,-5.33686 13.235203,-7.19896 20.394503,-4.20759 3.5488,1.48277 5.8064,4.81712 6.9933,10.32877 l 0.6999,3.25 h -4.4189 c -3.75,0 -4.5924,-0.38067 -5.5648,-2.51472 -0.6301,-1.3831 -2.2589,-3.02194 -3.6195,-3.64185 -5.5685,-2.5372 -10.447903,5.29836 -5.3057,8.52022 1.2375,0.77537 4.5709,2.15809 7.4076,3.07272 2.8366,0.91463 6.2933,2.71556 7.6815,4.00207 5.1994,4.81868 5.3995,15.27751 0.3882,20.28881 -3.8426,3.8426 -12.8812,5.2841 -19.227303,3.0665 z m 109.038303,-0.2385 c -7.9418,-2.937 -9.5383,-8.0417 -9.5383,-30.49807 v -16.05718 h 5 5 v 17.54546 c 0,17.29519 0.035,17.58049 2.4546,19.99999 2.9491,2.9492 5.5134,3.1101 8.6846,0.545 2.3003,-1.8607 2.3688,-2.3733 2.6739,-20.00003 l 0.3132,-18.09042 h 4.4974 4.4975 l -0.3106,18.93004 c -0.2836,17.28561 -0.4897,19.16961 -2.3724,21.68821 -4.966,6.6433 -12.8974,8.8964 -20.8999,5.937 z m 159,-0.054 c -7.4475,-2.6526 -10.0494,-8.6307 -10.013,-23.00523 0.022,-8.6143 0.3692,-10.69083 2.5,-14.94803 3.5463,-7.08502 6.6866,-9.04796 14.4747,-9.04796 7.2151,0 10.6055,1.84165 14,7.60453 1.7122,2.90694 2,5.19396 2,15.89547 0,11.14142 -0.2509,12.97012 -2.3087,16.82512 -3.8008,7.1208 -11.9807,9.7649 -20.653,6.6761 z m 10.9184,-8.867 c 2.8465,-2.8465 4.1136,-10.82608 3.0779,-19.38422 -0.9405,-7.77179 -2.6504,-10.25 -7.0724,-10.25 -5.4268,0 -7.4537,4.12663 -7.4585,15.1849 0,9.18682 1.0342,13.51612 3.7324,15.56512 2.4863,1.888 5.0936,1.5111 7.7206,-1.1158 z m -771.4567,-14.2203 v -23.58605 l 11.4305,0.33605 c 9.7149,0.28562 11.8536,0.65055 14.25,2.43157 7.297,5.42323 6.2659,21.92235 -1.5325,24.52183 -0.8596,0.28652 -9e-4,3.0536 2.8068,9.0451 2.2249,4.7477 4.0452,9.1285 4.0452,9.7349 0,0.6572 -2.0297,1.1027 -5.0247,1.1027 -4.5698,0 -5.1163,-0.249 -6.0357,-2.75 -0.5561,-1.5125 -2.2201,-5.5625 -3.6978,-9 -2.2131,-5.1481 -3.1039,-6.25005 -5.0524,-6.25005 -2.3373,0 -2.3616,0.10773 -2.0275,9.00045 l 0.3381,9.0004 -4.75,-4e-4 -4.75,-4e-4 z m 19.1713,-4.06893 c 2.2486,-2.03496 2.4115,-7.61642 0.2742,-9.39029 -0.8551,-0.7096 -3.4426,-1.3272 -5.75,-1.37245 l -4.1955,-0.0823 -0.3123,6.25 -0.3124,6.25 h 4.2336 c 2.5361,0 4.9669,-0.66358 6.0624,-1.65498 z m 19.8287,4.15498 v -23.5 h 14.0105 14.0104 l -0.3386,4.25 -0.3386,4.25 -9.1719,0.28753 -9.1718,0.28753 v 4.96247 4.96247 h 7.8333 c 4.3084,0 8.0446,0.21125 8.3028,0.46944 0.2582,0.25819 0.284,2.05819 0.057,4 l -0.4122,3.53056 h -7.8906 -7.8906 v 6.00005 6 h 9.5 9.5 v 4 4 h -14 -14 z m 32.4184,21.75005 c 0.5331,-1.6865 9.6078,-36.87995 10.9587,-42.50005 0.6268,-2.60754 0.9612,-2.75 6.4553,-2.75 h 5.7942 l 5.8556,22.25 c 3.2206,12.23755 6.0528,22.81255 6.2937,23.50005 0.3128,0.8925 -1.0022,1.25 -4.598,1.25 h -5.0361 l -1.1418,-5.5 -1.1418,-5.5 h -5.8574 -5.8574 l -1.2308,5.5 -1.2309,5.5 h -4.9082 c -4.2186,0 -4.8305,-0.2459 -4.3551,-1.75 z m 21.2588,-18.64877 c -0.2952,-0.7693 -1.0791,-4.2568 -1.742,-7.75 -0.663,-3.4932 -1.5309,-6.71506 -1.9287,-7.15968 -0.3978,-0.44462 -1.2694,2.03038 -1.9368,5.5 -0.6675,3.46962 -1.455,7.3209 -1.75,8.5584 -0.4918,2.06234 -0.1849,2.25 3.6789,2.25 3.2005,0 4.0862,-0.33674 3.6786,-1.39872 z m 65.3228,1.45098 v -18.94774 l -5.25,-0.30226 -5.25,-0.30226 -0.3075,-4.25 -0.3075,-4.25 h 15.5575 15.5575 v 4.5 4.5 h -5.5 -5.5 v 19 19.00005 h -4.5 -4.5 z m 26,-4.55226 v -23.5 h 4.5 4.5 v 23.5 23.50005 h -4.5 -4.5 z m 58.2708,-0.0493 -0.2291,-23.54925 5.668,0.29928 5.668,0.29928 6.0611,13.31309 6.0612,13.31309 0.2782,-13.56309 0.2782,-13.56309 h 4.4718 4.4718 v 23.5 23.50004 h -4.8212 -4.8213 l -6.3351,-14.25 c -3.4844,-7.83754 -6.7157,-14.67837 -7.1807,-15.20189 -0.465,-0.52352 -0.5493,5.88898 -0.1874,14.24999 l 0.658,15.2019 -4.9062,-10e-5 h -4.9061 z m 280.7292,0.0493 v -23.5 h 4.5 4.5 v 23.5 23.50005 h -4.5 -4.5 z m 18,0 v -23.5 h 6.5314 c 4.3594,0 6.6555,0.41568 6.9045,1.25 0.2053,0.6875 1.8787,6.53237 3.7187,12.9886 1.84,6.45623 3.5704,11.73764 3.8454,11.73647 0.275,-10e-4 2.3,-5.83995 4.5,-12.97507 l 4,-12.97293 6.25,-0.0135 6.25,-0.0135 v 23.5 23.49998 h -4.5 -4.5 l -0.079,-16.25 -0.079,-16.24998 -1.8682,5.5 c -1.0276,3.025 -2.843,8.78589 -4.0343,12.80198 l -2.166,7.302 -4.0401,-0.302 c -4.021,-0.3005 -4.0481,-0.3303 -5.7314,-6.302 -0.9302,-3.3 -2.5487,-8.69998 -3.5967,-11.99998 l -1.9054,-6 -0.2754,15.74998 -0.2754,15.75 h -4.4746 -4.4746 z m 93,0 v -23.5 h 4.5 4.5 v 19.5 19.50005 h 8.5 8.5 v 4 4 h -13 -13 z m 29.3701,21.75005 c 0.2777,-0.9625 2.5865,-9.85 5.1306,-19.75005 2.5441,-9.9 5.0646,-19.6875 5.601,-21.75 l 0.9754,-3.75 5.7114,0.005 5.7115,0.005 6.073,23.54096 6.0729,23.54099 -5.0237,-0.2962 -5.0237,-0.2961 -1.0519,-5 -1.052,-5 -5.4027,-0.3076 c -6.1088,-0.3479 -6.6053,0.077 -7.5644,6.4731 l -0.6501,4.3345 h -5.0061 c -4.2934,0 -4.9342,-0.2491 -4.5012,-1.75 z m 21.3005,-18.00005 c -0.2461,-0.4125 -1.2607,-4.35 -2.2548,-8.75 l -1.8074,-8 -1.7226,7 c -2.5693,10.44049 -2.5569,10.5 2.1732,10.5 2.2325,0 3.8577,-0.3375 3.6116,-0.75 z m 23.3294,0.75 v -19 h -5 -5 v -4.5 -4.5 h 15 15 v 4.5 4.5 h -5.5 -5.5 v 19 19.00005 h -4.5 -4.5 z m 25,-4.5 v -23.5 h 4.5 4.5 v 23.5 23.50005 h -4.5 -4.5 z m 59,-0.0523 v -23.55226 l 5.2245,0.30226 5.2245,0.30226 5.848,13 c 3.2164,7.15 6.2654,13.4275 6.7755,13.95 0.571,0.5849 0.9275,-4.50739 0.9275,-13.25 v -14.2 h 4 4 v 23.5 23.49999 h -4.75 -4.75 l -6.3962,-14.7452 c -3.5179,-8.10983 -6.6711,-15.06331 -7.007,-15.45216 -0.336,-0.38885 -0.4719,6.24865 -0.3022,14.74996 l 0.3086,15.457 h -4.5516 -4.5516 z M -328.1928,835.1316 c -4.186,-1.69673 -5.4952,-4.94715 -4.1364,-10.26961 1.1926,-4.67117 3.5743,-5.21085 25.4433,-5.76509 l 20.2723,-0.51378 -6.4703,-4.68808 c -7.5923,-5.50095 -10.5506,-10.46052 -11.3234,-18.98311 -0.6644,-7.3268 1.3161,-12.97165 7.6587,-21.82881 2.56,-3.575 5.6373,-8.10322 6.8384,-10.06272 4.2436,-6.92327 11.1748,-7.94721 14.7386,-2.17734 1.1074,1.79297 4.4021,6.47828 7.3215,10.41181 7.1186,9.59146 8.3192,12.13892 8.9382,18.96632 0.9762,10.76471 -1.7427,16.05106 -13.3009,25.86193 l -2.9453,2.5 19,0.5 c 19.1986,0.50523 22.5758,1.14921 23.8824,4.55401 1.3315,3.46998 0.5762,7.5783 -1.8369,9.99145 l -2.4546,2.45454 -44.7954,-0.0634 c -24.6375,-0.0349 -45.7111,-0.43453 -46.8302,-0.88814 z m 52.9458,-36.1252 c 3.6441,-4.33074 3.4867,-9.38377 -0.4619,-14.83475 -2.4349,-3.36122 -3.5755,-4.14866 -5.6494,-3.90004 -3.5764,0.42874 -8.3233,6.5679 -9.0043,11.64518 -0.479,3.5712 -0.1724,4.44324 2.5024,7.11806 4.229,4.22902 9.0399,4.21817 12.6132,-0.0285 z m 72.7632,34.76227 c -2.7673,-2.94563 -2.8499,-8.00997 -0.1743,-10.68555 1.873,-1.87301 3.3333,-2 23,-2 h 21 v -88.87109 -88.8711 l -3.357,-2.30028 c -1.8464,-1.26516 -4.2089,-3.57187 -5.25,-5.12603 l -1.893,-2.82575 -21.6975,-0.003 -21.6974,-0.003 2.9089,6.25 c 9.9985,21.48258 8.7136,47.28218 -3.4504,69.28118 -2.5811,4.66789 -7.05,10.1542 -13.535,16.61636 -8.5976,8.56728 -10.8489,10.20865 -20.1052,14.65863 -14.0608,6.75979 -18.5158,7.69812 -36.4234,7.67171 -14.1328,-0.0208 -15.4914,-0.19726 -23.5,-3.0516 -26.1925,-9.33526 -44.495,-28.63394 -51.617,-54.42628 -2.5095,-9.08819 -2.516,-31.8943 -0.012,-40.94215 5.4288,-19.61392 17.7326,-36.08668 35.4234,-47.4262 l 7.2054,-4.61853 v -23.53094 -23.53117 l -4.4312,-2.6765 c -7.2855,-4.40064 -8.711,-10.84445 -3.6518,-16.50849 l 2.917,-3.26578 36.2873,-0.28666 c 39.2363,-0.30996 40.836,-0.13027 43.4258,4.87786 2.946,5.69691 1.3797,11.55482 -3.9743,14.86376 l -3.5728,2.20816 v 23.89276 23.89277 l 3.25,1.65172 c 4.6852,2.38113 15.6771,10.65401 19.6961,14.82403 l 3.4462,3.57561 h 26.2417 26.2417 l 3.0876,-4.29945 c 1.6982,-2.3647 4.4509,-5.10473 6.117,-6.08896 l 3.0294,-1.78949 -0.186,-36.59992 -0.1859,-36.59991 2.6868,-2.31114 c 3.4476,-2.96547 6.0529,-2.92451 9.1208,0.14341 l 2.4546,2.45454 v 36.81806 36.81806 l 3.6398,1.96019 c 2.002,1.07811 4.7617,3.65544 6.1329,5.72741 l 2.493,3.7672 h 11.6928 c 10.9294,0 11.8348,0.15111 13.8671,2.31446 2.392,2.54616 2.8224,7.2586 0.8926,9.7722 -2.3906,3.11366 -5.6207,3.91334 -15.8066,3.91334 h -10.2198 l -3.4463,4.02623 c -1.8954,2.21442 -4.7511,4.70098 -6.3459,5.52568 l -2.8996,1.49945 v 88.47432 88.47432 h 11.8892 c 13.3486,0 15.6029,0.9012 16.7195,6.68372 0.4959,2.56805 0.1185,3.67997 -1.9515,5.75 l -2.5663,2.56628 h -40.3712 -40.3711 z m -57.956,-103.1827 c 10.2367,-3.53093 17.8858,-8.63341 25.7817,-17.1982 12.0245,-13.04319 17.6813,-28.58618 16.6704,-45.80465 -1.4385,-24.50012 -14.8705,-45.4529 -36.5404,-57 -9.2435,-4.92551 -9.2378,-4.90064 -8.9953,-39.00001 l 0.2062,-29 -19.1705,-0.27159 -19.1704,-0.27159 -0.015,30.27159 c -0.011,22.0177 -0.3515,30.93579 -1.25,32.70754 -0.6794,1.33976 -3.9353,3.99158 -7.2353,5.89293 -13.6404,7.85916 -23.7214,18.3368 -29.5102,30.67113 -4.9413,10.52864 -6.3212,16.90636 -6.2747,29 0.1152,29.98323 20.4529,55.34853 49.7849,62.09232 9.4818,2.17997 26.1709,1.20368 35.7183,-2.08947 z m -34.9461,-8.93971 c -18.3898,-4.45606 -33.4526,-19.50149 -37.7423,-37.6986 -2.3109,-9.80325 -2.0269,-15.45842 0.9247,-18.40999 l 2.4545,-2.45455 h 48.4729 48.4728 l 2.0726,2.63486 c 2.8692,3.64757 2.7112,11.24049 -0.4416,21.22091 -7.2513,22.9543 -25.9263,36.30337 -50.4459,36.05919 -4.6969,-0.0468 -10.8924,-0.65509 -13.7677,-1.35182 z m 29.8047,-23.48621 c 3.1714,-3.17139 3.5582,-5.016 1.7598,-8.39267 -2.681,-5.03365 -8.6273,-6.21 -13.2018,-2.61168 -4.2258,3.32398 -3.2352,10.93986 1.6805,12.92044 3.9828,1.60473 6.7922,1.05328 9.7615,-1.91609 z m -44.0002,-45.66582 c -7.7122,-6.48945 -0.2962,-18.22995 9.0657,-14.35211 6.4854,2.68631 6.9804,12.27476 0.7988,15.47139 -4.0508,2.09477 -6.3556,1.83325 -9.8645,-1.11928 z m 45.9697,-8.21087 c -5.9649,-5.96488 -2.5121,-14.20024 5.9536,-14.20024 11.311,0 12.022,14.87015 0.7964,16.65708 -3.2,0.50939 -4.1178,0.17533 -6.75,-2.45684 z m -26.4575,-24.27696 c -2.7653,-3.28633 -3.2162,-5.88271 -1.5592,-8.97867 1.2325,-2.30305 6.0393,-4.94461 8.9976,-4.94461 3.0242,0 7.9727,5.27578 7.9727,8.5 0,3.96385 -4.9813,8.5 -9.3342,8.5 -2.6673,0 -4.0972,-0.72396 -6.0769,-3.07672 z m 471.4111,197.07672 c -2.6977,-2.69767 -2.5558,-7.12917 0.3145,-9.82568 2.1155,-1.98747 3.3642,-2.17432 14.5313,-2.17432 8.906,0 12.3191,-0.33877 12.5938,-1.25 0.2072,-0.6875 1.5846,-8 3.0608,-16.25 1.4762,-8.25 2.8978,-15.7875 3.1592,-16.75 0.4482,-1.65045 -2.5066,-1.75 -51.943,-1.75 -36.4129,0 -53.4561,-0.34628 -55.8174,-1.1341 -4.3115,-1.43849 -9.731103,-6.41826 -11.518403,-10.58378 -1.1446,-2.6675 -1.3808,-20.84562 -1.3808,-106.28212 0,-90.48621 0.1877,-103.51351 1.5381,-106.74553 1.9848,-4.7503 4.0893,-7.02195 8.672103,-9.36089 3.5915,-1.83302 8.4718,-1.89359 152.5927,-1.89359 h 148.8825 l 4.4073,2.32764 c 2.8942,1.52852 5.4373,3.99047 7.4073,7.17099 l 3,4.84335 0.278,100.03577 c 0.1978,71.18528 -0.046,101.59773 -0.8464,105.4517 -1.3663,6.58146 -7.5056,13.40323 -13.5803,15.09002 -2.5047,0.69547 -21.9529,1.07134 -55.6204,1.07497 l -51.769,0.006 0.4776,2.25 c 0.2627,1.2375 1.708,9.3375 3.2118,18 l 2.7341,15.75 h 12.3073 c 10.974,0 12.524,0.21668 14.3073,2 1.2255,1.22555 2,3.33334 2,5.4433 0,6.88469 3.8879,6.5567 -77.7225,6.5567 -71.9442,0 -73.3139,-0.0364 -75.2775,-2 z m 110.0015,-13.75 c 9e-4,-0.9625 -1.3989,-9.0625 -3.1106,-18 l -3.1122,-16.25 h -27.778 -27.7781 l -0.6539,3.75 c -0.5395,3.09454 -4.2269,21.15774 -6.124,30 l -0.4828,2.25 h 34.519 c 32.2081,0 34.5192,-0.11716 34.5206,-1.75 z m 112.9259,-51.88485 c 1.8323,-2.32937 2.0726,-4.01056 2.0726,-14.5 v -11.86515 h -149 -149 v 12.67126 c 0,10.38742 0.2983,13.00087 1.655,14.5 1.5889,1.75567 7.4598,1.82874 146.9274,1.82874 h 145.2724 z m 2.0726,-119.86515 c 0,-79.16667 -0.033,-80.53313 -2,-82.50001 -1.9816,-1.98157 -3.3333,-2 -146.6856,-2 H 112.9708 l -2.3144,2.17432 -2.3145,2.17431 v 80.3257 80.32568 h 149 149 z m -245.5965,57.48451 c -4.1528,-1.29035 -11.765,-8.11923 -13.7771,-12.35935 -0.9311,-1.9621 -1.6264,-5.95091 -1.6264,-9.32994 0,-13.54709 10.2175,-23.6492 23.5,-23.2346 2.2,0.0687 4.4787,0.0831 5.0638,0.0321 0.585,-0.051 4.1726,-4.25524 7.9724,-9.34274 3.7997,-5.0875 8.5992,-11.32624 10.6654,-13.86388 l 3.7567,-4.61388 -2.0872,-1.88612 c -1.148,-1.03736 -3.2676,-4.13612 -4.7102,-6.88612 -2.1852,-4.16551 -2.6102,-6.25173 -2.5468,-12.5 0.1271,-12.50948 5.3216,-21.11067 16.0175,-26.52231 14.0655,-7.11646 32.038,-1.21906 39.686,13.0223 3.1175,5.80514 3.119,20.21862 0,26.146 l -2.1798,4.146 11.2473,11.01211 11.2473,11.01211 5.4324,-1.87546 c 6.5907,-2.27532 15.4223,-2.4697 20.2656,-0.44603 l 3.5774,1.49472 10.0905,-9.74472 10.0904,-9.74472 -2.0457,-3.96144 c -5.0897,-9.85595 -0.112,-24.40313 10.1398,-29.63322 5.9032,-3.01158 13.7442,-3.58579 19.4113,-1.42153 19.7416,7.53939 21.7139,33.70428 3.2348,42.91281 -5.5845,2.7829 -13.4139,3.4731 -18.3046,1.61365 -2.427,-0.92274 -3.2673,-0.32193 -12.4134,8.87545 l -9.8101,9.86518 1.8458,2.37455 c 2.4547,3.15788 4.8507,11.24597 4.8507,16.37455 0,12.01893 -7.8307,23.02462 -19.531,27.45012 -11.5086,4.35296 -25.8209,1.10784 -33.4534,-7.58509 -7.6062,-8.663 -9.5135,-21.2287 -4.7808,-31.49742 l 2.4739,-5.36761 -11.598,-11.24943 -11.598,-11.24943 -4.6232,1.53557 c -4.5095,1.4978 -14.8815,2.2043 -16.6168,1.13186 -0.4775,-0.29513 -1.3317,-0.22879 -1.8983,0.14742 -1.2395,0.82307 -13.7192,16.85762 -18.0744,23.22286 l -3.1055,4.53885 2.3546,3.90138 c 6.5568,10.86419 3.0191,24.68043 -8.0753,31.5371 -3.8972,2.40863 -15.1132,3.5086 -20.0703,1.96833 z m 14.6734,-14.90758 c 2.2859,-2.28586 2.9231,-3.82224 2.9231,-7.04775 0,-5.66217 -3.5762,-9.02918 -9.5903,-9.02918 -5.796,0 -9.339,3.054 -10.0967,8.7033 -0.4994,3.72326 -0.2173,4.54628 2.4849,7.24843 4.2452,4.24518 10.1076,4.29658 14.279,0.1252 z m 113.382,-0.47778 c 4.6102,-3.51636 6.5411,-7.40214 6.5411,-13.16333 0,-11.87795 -11.2751,-20.11039 -21.7841,-15.90551 -4.6625,1.86556 -9.8487,7.15847 -10.8248,11.04755 -0.9986,3.97881 0.1982,11.38846 2.3075,14.28638 5.2607,7.22748 16.8026,9.04178 23.7603,3.73491 z m -64.4487,-64.84915 c 5.1271,-3.48951 7.271,-7.07744 7.7432,-12.95852 0.3489,-4.347 0.01,-5.89978 -1.9143,-8.69953 -3.5961,-5.23959 -7.1412,-7.37116 -13.0476,-7.84532 -4.347,-0.34896 -5.8998,-0.007 -8.6995,1.91429 -5.7933,3.97614 -7.592,7.2549 -7.592,13.83908 0,4.37269 0.5292,6.56753 2.092,8.67667 3.5465,4.78651 8.1911,7.32333 13.408,7.32333 3.2323,0 5.7387,-0.70403 8.0102,-2.25 z m 114.8791,-0.31028 c 7.517,-6.32514 2.7178,-18.43972 -7.3049,-18.43972 -3.4654,0 -9.2555,5.30554 -9.7939,8.97433 -1.4217,9.6863 9.5911,15.78267 17.0988,9.46539 z m -756.5739,56.5533 c -2.791,-1.12451 -4.6398,-4.56453 -3.9436,-7.33805 0.298,-1.18731 2.8472,-4.7454 5.665,-7.90686 l 5.1232,-5.74811 h -21.6255 -21.6254 l -2.4545,-2.45454 c -1.35,-1.35 -2.4546,-3.62046 -2.4546,-5.04546 0,-1.425 1.1046,-3.69545 2.4546,-5.04545 l 2.4545,-2.45455 h 22.204 22.2039 l -6.1585,-6.41344 c -3.3872,-3.5274 -6.1585,-7.25227 -6.1585,-8.2775 0,-4.57563 5.9499,-8.47662 9.7923,-6.42022 2.023,1.0827 21.6036,20.80371 23.8742,24.04546 0.9014,1.28692 1.279,3.14681 0.9251,4.55692 -1.2752,5.08051 -25.2349,30.36133 -27.9067,29.4454 -0.1017,-0.0349 -1.168,-0.45948 -2.3695,-0.9436 z m 9.6846,-226.12691 c -4.6516,-1.36773 -7.784,-4.42902 -8.9959,-8.79186 -1.418,-5.10432 -1.4377,-5.07426 3.3354,-5.07426 3.6454,0 4.5196,0.39543 5.466,2.47242 1.1812,2.59248 4.4427,3.92247 8.2407,3.36046 3.2267,-0.47747 4.5941,-3.10871 3.3935,-6.53011 -0.7845,-2.23552 -2.1935,-3.221 -6.9616,-4.86924 -3.288,-1.13656 -6.9859,-2.6124 -8.2177,-3.27964 -5.9682,-3.23285 -6.9971,-14.68789 -1.806,-20.10627 6.3336,-6.61091 21.1577,-5.58393 24.4744,1.69554 0.5892,1.29302 1.0712,3.67978 1.0712,5.3039 0,2.74675 -0.2618,2.9525 -3.75,2.94662 -3.0712,-0.005 -4.0426,-0.52078 -5.3665,-2.84846 -2.7705,-4.87096 -9.2156,-4.65445 -10.4721,0.35179 -0.8996,3.5841 1.3669,5.75265 8.2949,7.93649 3.4603,1.09078 7.0357,3.10851 9.0144,5.08716 2.89,2.89001 3.2789,3.91451 3.2756,8.62934 0,6.1084 -2.6136,11.37381 -6.3381,12.78987 -4.0818,1.5519 -11.0359,1.99133 -14.6582,0.92625 z m 221.7283,0.19394 c -5.9687,-1.19046 -11.9531,-8.42591 -10.3736,-12.5421 0.7638,-1.99035 8.6453,-2.14802 8.6453,-0.17294 0,4.01174 8.2693,6.24288 11.4286,3.08356 3.4312,-3.43121 1.267,-7.40147 -5.1695,-9.48333 -10.5263,-3.40474 -14.2591,-7.26547 -14.2591,-14.7477 0,-4.66892 3.3407,-10.10419 7.4142,-12.06293 1.5618,-0.75096 4.9754,-1.36539 7.5858,-1.36539 8.047,0 13.1121,3.86955 14.3735,10.98077 l 0.5765,3.25 h -4.4559 c -3.9232,0 -4.5313,-0.29996 -5.0856,-2.5087 -1.1579,-4.61345 -9.2292,-4.81602 -10.8208,-0.27158 -1.3054,3.72742 0.8708,5.92911 8.1186,8.21378 3.4603,1.09078 7.0357,3.10851 9.0144,5.08716 2.7752,2.77526 3.2793,4.00163 3.2793,7.97821 0,5.81604 -2.4335,11.16149 -5.8848,12.92694 -3.5727,1.8275 -9.8455,2.54004 -14.3869,1.63425 z m 53.4564,-0.0123 c -4.2313,-1.04901 -7.825,-4.42788 -9.2268,-8.6753 -1.4236,-4.31371 -0.6628,-5.37391 3.8511,-5.36617 3.0501,0.005 3.9868,0.52612 5.3945,3 1.3792,2.42379 2.365,2.99367 5.1786,2.99367 1.9113,0 4.1822,-0.70714 5.0465,-1.57142 3.7185,-3.71857 0.4156,-7.99101 -8.4557,-10.93756 -14.303,-4.75072 -14.3507,-23.37187 -0.068,-26.58097 9.0147,-2.02546 16.7783,2.30842 17.8016,9.93737 l 0.5569,4.15258 -3.8816,-0.006 c -3.262,-0.005 -4.1537,-0.48428 -5.5852,-3 -1.3026,-2.28919 -2.415,-2.99368 -4.7269,-2.99368 -3.891,0 -6.765,3.83204 -5.1448,6.85957 0.9051,1.69114 10.3314,6.14043 13.0091,6.14043 0.4724,0 2.2555,1.59066 3.9625,3.5348 2.5349,2.88704 3.1029,4.39887 3.0999,8.25 0,5.19504 -2.4603,10.18091 -6.1986,12.58294 -2.9385,1.88816 -10.3408,2.7392 -14.613,1.68006 z m -239.1847,-9.08195 c 0,-8.82444 -0.1274,-9.31258 -5.488,-21.02812 -3.0184,-6.59668 -5.7672,-13.10631 -6.1084,-14.46584 -0.5966,-2.3769 -0.4324,-2.47189 4.2723,-2.47189 h 4.8927 l 1.8197,4.75 c 1.0009,2.6125 2.6399,7 3.6422,9.75 l 1.8225,5 1.1127,-3 c 0.612,-1.65 2.2594,-6.0375 3.661,-9.75 l 2.5482,-6.75 h 4.9125 c 2.7019,0 4.9126,0.21425 4.9126,0.47611 0,0.26185 -2.925,7.00569 -6.5,14.98631 -6.3548,14.18605 -6.5,14.7004 -6.5,23.0239 v 8.51368 h -4.5 -4.5 z m 27,-14.51811 v -23.55226 l 5.0382,0.30226 5.0381,0.30226 6.2119,13.74919 6.2118,13.74919 0.2775,-13.99919 0.2774,-13.99919 h 4.4726 4.4725 v 23.5 23.5 h -4.8009 -4.8008 l -6.1992,-13.46397 c -3.4095,-7.40519 -6.1991,-13.90363 -6.1991,-14.44098 0,-0.53736 -0.5107,-1.29265 -1.1349,-1.67843 -0.8395,-0.51886 -0.9449,3.23963 -0.4047,14.44099 l 0.7302,15.14239 h -4.5953 -4.5953 z m 49,3.97813 V 399.9348 l -5.25,0.28362 -5.25,0.28363 -0.3075,-4.20949 -0.3075,-4.20949 h 15.615 15.615 l -0.3075,4.25 -0.3075,4.25 -5,0.0185 -5,0.0185 -0.2716,19.23149 -0.2716,19.23149 h -4.4784 -4.4784 z m 25,-3.92587 v -23.5 h 4.5 4.5 v 10.03619 10.03618 l 7,-0.17665 7,-0.17666 v -9.85953 -9.85953 h 4.5 4.5 v 23.5 23.5 h -4.5 -4.5 v -9.5 -9.5 h -7 -7 v 9.5 9.5 h -4.5 -4.5 z m 42,0 v -23.5 h 13.5 13.5 v 4.56184 4.56183 l -8.75,-0.21472 -8.75,-0.21472 -0.3023,5.15289 -0.3022,5.15288 h 8.0522 8.0523 v 4 4 h -8.0499 -8.0499 l 0.2999,5.75 0.2999,5.75 8.75,0.28894 8.75,0.28893 v 3.96107 3.96106 h -13.5 -13.5 z m 71,0 v -23.5 h 4 4 v 23.5 23.5 h -4 -4 z m 176.019897,20.80456 c -4.7678,-2.47231 -7.7558,-7.34298 -8.5873,-13.99782 -0.9847,-7.88108 0.1294,-18.83668 2.3539,-23.14833 3.7158,-7.20214 11.145,-9.88519 18.6678,-6.74193 4.0052,1.67346 6.4149,5.00254 7.2223,9.97775 0.6277,3.86841 0.9722,3.64831 -6.2954,4.02244 -1.0029,0.0516 -2.0491,-1.24809 -2.75,-3.41667 -1.405,-4.3472 -5.1933,-5.24635 -8.1834,-1.94234 -1.6899,1.86739 -1.9478,3.65714 -1.9478,13.51955 0,10.42228 0.1853,11.55249 2.2284,13.59565 3.0901,3.09012 7.3744,1.65015 8.7284,-2.93364 0.8575,-2.90317 1.3442,-3.23922 4.691,-3.23922 2.0538,0 3.9437,0.33909 4.1999,0.75352 0.9999,1.61786 -2.9623,10.66819 -5.4835,12.52508 -3.7753,2.78064 -10.5565,3.24932 -14.8443,1.02596 z m 173.480103,1.00535 c -7.9475,-2.15947 -11.0581,-10.00336 -10.2495,-25.84648 0.733,-14.36143 3.3243,-18.57629 12.3015,-20.00903 7.9905,-1.27526 13.7678,3.29629 14.5969,11.55048 0.3378,3.3628 0.2156,3.50649 -3.2275,3.79527 -3.3501,0.28099 -3.6802,0.0416 -5.1696,-3.75 -1.2811,-3.26148 -2.0884,-4.05015 -4.1457,-4.05015 -3.5771,0 -5.8311,4.8059 -6.3316,13.5 -0.5329,9.25867 1.3483,15.64336 4.9864,16.9228 3.2831,1.15462 6.7391,-1.44939 6.7391,-5.07778 0,-2.06918 0.4705,-2.34502 4,-2.34502 3.6135,0 4,0.24465 4,2.53212 0,3.79964 -2.5344,9.11692 -5.1665,10.83956 -2.6195,1.71445 -9.2958,2.76363 -12.3335,1.93823 z m 245.7862,-0.3699 c -7.0574,-2.1486 -11.057,-12.72979 -9.945,-26.31035 1.1001,-13.43494 7.0845,-20.19748 17.0968,-19.31992 4.0797,0.35758 5.4941,1.03967 8.1377,3.92432 7.9567,8.68229 6.9195,33.63919 -1.6623,39.99635 -3.0951,2.29277 -9.1971,3.05831 -13.6272,1.7096 z m 9.3088,-9.04355 c 1.5078,-1.66497 1.9792,-3.99476 2.261,-11.17449 0.4351,-11.08599 -0.9248,-16.45015 -4.391,-17.32011 -3.6387,-0.91324 -5.3751,0.13883 -7.1194,4.31344 -2.2476,5.37918 -1.5214,21.32797 1.1031,24.22805 2.391,2.64202 5.7286,2.62281 8.1463,-0.0469 z M 44.341897,414.58311 v -22.5 h 4 4 v 9.5 9.5 h 6 6 v -9.5 -9.5 h 4 4 v 22.5 22.5 h -4 -4 v -9.5 -9.5 h -6 -6 v 9.5 9.5 h -4 -4 z m 34.4535,18.7755 c 0.3576,-2.11702 2.7644,-12.15756 5.3484,-22.31231 l 4.6981,-18.46319 5.25,-0.30226 c 2.8875,-0.16624 5.25,-0.10583 5.25,0.13425 0,0.54839 9.880103,40.54139 10.602703,42.91801 0.4518,1.48607 -0.146,1.75 -3.9636,1.75 h -4.4957 l -1.2308,-5.5 -1.230903,-5.5 h -4.7818 c -5.3918,0 -5.7161,0.30075 -6.722,6.23464 -0.7095,4.18518 -0.8044,4.27123 -5.0489,4.57767 l -4.3258,0.31231 z m 17.0429,-22.29254 c -0.8527,-4.05364 -1.7239,-7.5438 -1.936,-7.75591 -0.2121,-0.21211 -0.9126,2.23753 -1.5567,5.44365 -0.644,3.20612 -1.3986,6.80802 -1.6769,8.00424 -0.4164,1.78988 0,2.23835 2.3336,2.53314 1.5618,0.19702 3.1876,0.0853 3.613,-0.24833 0.4254,-0.3336 0.076,-3.92315 -0.777,-7.97679 z m 19.503603,3.51704 v -22.5 l 9.25,0.0147 c 10.464,0.0167 13.1565,0.98083 16.47,5.89771 3.7193,5.51901 2.3481,14.82518 -2.706,18.36516 l -2.1972,1.53901 4.0916,9.21796 c 2.2504,5.06988 4.0916,9.38614 4.0916,9.59169 0,0.20555 -2.1375,0.37367 -4.75,0.37361 l -4.75,-1.2e-4 -3.5121,-8.74988 c -2.7646,-6.88753 -3.9353,-8.74989 -5.5,-8.74989 -1.8503,0 -1.9716,0.60572 -1.753,8.75 l 0.2349,8.75 h -4.4849 -4.4849 z m 17.1713,-4.15498 c 2.1082,-1.90794 2.3987,-6.22027 0.5787,-8.59098 -0.6875,-0.89552 -2.8972,-1.92405 -4.9105,-2.28563 l -3.6605,-0.6574 -0.3395,6.59659 -0.3395,6.5966 3.4213,-0.002 c 1.8817,-10e-4 4.2442,-0.74684 5.25,-1.65708 z m 14.0883,25.40498 c 0.2604,-0.6875 2.829,-10.8125 5.7079,-22.5 l 5.2344,-21.25 5.1491,0.0165 5.149,0.0165 5.2678,21.73352 c 2.8973,11.95344 5.2598,22.0969 5.25,22.54102 -0.01,0.44413 -1.9294,0.66913 -4.2658,0.5 -4.2276,-0.30601 -4.2531,-0.33158 -5.3017,-5.3075 l -1.0536,-5 -5.1348,-0.23807 c -5.5929,-0.25931 -5.5227,-0.33128 -6.8199,6.98807 -0.6519,3.6787 -0.7501,3.75 -5.1603,3.75 -3.1824,0 -4.3573,-0.36514 -4.0221,-1.25 z m 19.4176,-18.14872 c -0.2952,-0.7693 -1.0769,-4.1443 -1.7371,-7.5 -0.6601,-3.3557 -1.4891,-6.10128 -1.8421,-6.10128 -0.5726,0 -3.098,11.39126 -3.098,13.97372 0,0.56446 1.6232,1.02628 3.607,1.02628 2.6793,0 3.4689,-0.35974 3.0702,-1.39872 z m 55.3228,0.89872 v -18.5 h -5 -5 v -4 -4 h 13.5 13.5 v 4 4 h -4.5 -4.5 v 18.5 18.5 h -4 -4 z m 21.5,-3.99759 v -22.49845 l 11.75,-0.002 11.75,-0.002 v 4 4 h -7.5 -7.5 v 5.5 5.5 h 7 7 v 3.5 3.5 h -7 -7 v 5.5 5.5 h 7.5 7.5 v 4 4 l -11.75,4.4e-4 -11.75,4.3e-4 z m 29.5,-0.0934 v -22.59103 l 10.5839,0.34103 c 10.5163,0.33885 10.6026,0.36188 13.5,3.6068 2.4767,2.77372 2.9161,4.09958 2.9161,8.79966 0,6.08807 -1.9089,10.78024 -5.0749,12.47466 -1.3829,0.7401 -1.7518,1.4851 -1.1287,2.27964 0.509,0.64915 2.5231,4.91489 4.4757,9.47944 l 3.5501,8.29918 -5.0566,-0.29918 -5.0567,-0.29918 -3.2678,-8.5 c -4.604,-11.97571 -6.4411,-11.99663 -6.4411,-0.0733 v 9.07332 h -4.5 -4.5 z m 16.0657,-3.44416 c 1.3972,-0.74772 1.9343,-2.10217 1.9343,-4.87755 0,-4.32857 -1.2759,-5.79245 -5.8453,-6.70633 l -3.1547,-0.63094 v 6.625 c 0,6.44527 0.07,6.625 2.5657,6.625 1.4112,0 3.4362,-0.46583 4.5,-1.03518 z m 17.8801,25.28518 c -0.03,-0.4125 -0.039,-10.425 -0.02,-22.25 l 0.034,-21.5 4.02,-0.30749 4.0201,-0.3075 v 22.5575 22.55749 h -4 c -2.2,0 -4.0244,-0.3375 -4.0542,-0.75 z m 14.0542,-1.62498 c 0,-1.30625 3.375,-9.44768 7.5,-18.09208 4.125,-8.64441 7.5,-15.88095 7.5,-16.08121 0,-0.20026 -3.2625,-0.49632 -7.25,-0.65792 l -7.25,-0.29381 -0.3104,-3.75 -0.3103,-3.75 h 13.0603 13.0604 v 2.62462 c 0,1.44354 -3.5729,9.76854 -7.9399,18.5 l -7.9398,15.87538 h 7.9398 7.9399 v 4 4 h -13 -13 z m 29.4022,0.62498 c 1.5714,-5.12063 9.5978,-39.7471 9.5978,-41.40531 0,-1.73235 0.6177,-1.91177 5.6621,-1.64459 l 5.6621,0.2999 5.6726,22.29804 5.6725,22.29804 -4.5358,-0.29804 -4.5357,-0.29804 -1.0513,-5 -1.0512,-5 -4.9009,-0.31105 c -5.5638,-0.35312 -6.1191,0.15582 -7.0669,6.4765 l -0.6501,4.33455 h -4.5061 c -3.8294,0 -4.4254,-0.26279 -3.9691,-1.75 z m 17.8342,-22.97205 c -0.8152,-3.72787 -1.8101,-7.13865 -2.2109,-7.57952 -0.4007,-0.44086 -1.4002,2.57336 -2.221,6.69828 l -1.4923,7.49986 3.0939,0.32572 c 1.7016,0.17914 3.3681,0.21499 3.7032,0.0797 0.3351,-0.13533 -0.058,-3.29613 -0.8729,-7.024 z m 22.7636,6.27685 v -18.44521 l -4.75,-0.30479 c -4.7042,-0.30186 -4.753,-0.34095 -5.0604,-4.0548 l -0.3103,-3.75 h 14.1207 14.1207 l -0.3103,3.75 c -0.3078,3.71904 -0.35,3.75253 -5.1025,4.05651 l -4.7921,0.30651 0.2921,18.4446 0.2921,18.44461 -4.25,-0.001 -4.25,-10e-4 z m 22,-4.0548 v -22.5 h 4.5 4.5 v 22.5 22.5 h -4.5 -4.5 z m 51.7865,-0.0445 -0.2865,-22.54446 4.9095,0.29446 4.90952,0.29446 5.5905,13.31441 5.59047,13.31441 0.2782,-13.56441 0.2782,-13.56441 h 3.9719 3.9718 v 22.5 22.5 h -4.3819 -4.3819 l -5.71957,-13.50369 c -3.1458,-7.42703 -6.0115,-13.68496 -6.3682,-13.90651 -0.3567,-0.22155 -0.502,5.85511 -0.3229,13.50369 l 0.3256,13.90651 h -4.03912 -4.0391 z m -789.6735,-67.00016 c -19.6702,-4.26738 -36.3699,-13.71869 -50.8024,-28.75195 -18.1646,-18.92069 -27.2341,-43.5652 -26.0198,-70.70341 1.6722,-37.36787 18.5661,-64.60547 52.9592,-85.38464 l 2.75,-1.66146 v -36.02661 c 0,-40.319499 0.2305,-38.888959 -7.2665,-45.101929 -5.4011,-4.47605 -7.7335,-9.1037 -7.7335,-15.34413 0,-4.14545 0.4701,-5.18658 3.8824,-8.59887 l 3.8823,-3.88235 h 48.4698 48.4697 l 3.3979,2.26993 c 9.4639,6.32229 8.889,18.23471 -1.2202,25.28283 -7.9411,5.53657 -7.8806,5.18711 -7.865,45.447229 0.01,19.525 0.3443,35.98414 0.7484,36.57585 1.3099,1.91811 8.6491,6.42415 10.4633,6.42415 1.5422,0 35.2864,-18.57864 38.4714,-21.18132 0.8564,-0.69979 1.2859,-7.81004 1.5,-24.82894 0.2771,-22.0307 0.4524,-24.051259 2.3,-26.510649 1.1,-1.46428 8.975,-6.5163 17.5,-11.22673 28.046,-15.4966 32.1025,-17.44231 34.9191,-16.7488 2.2085,0.54378 23.8324,12.31732 43.3117,23.58181 8.7285,5.04754 8.7699,5.21515 8.7655,35.565759 -0.01,31.44644 0.681,29.61077 -14.1714,37.94381 -5.6787,3.18606 -14.8249,8.36432 -20.3249,11.50725 l -10,5.71442 -0.5,32.17337 c -0.4721,30.38048 -0.6082,32.25241 -2.4411,33.5917 -1.0676,0.78008 -3.3441,1.41832 -5.0589,1.41832 -1.7148,0 -3.9912,-0.63824 -5.0589,-1.41832 -1.8332,-1.33946 -1.9689,-3.21201 -2.4411,-33.67381 l -0.5,-32.25548 -17,-9.86966 c -9.35,-5.42832 -18.35,-10.55211 -20,-11.38621 -2.9668,-1.49978 -3.1824,-1.41487 -19.5,7.6827 -9.075,5.05958 -16.694,9.36811 -16.9312,9.5745 -0.2371,0.2064 2.1625,2.95625 5.3326,6.11078 12.5873,12.52584 22.0558,30.71308 25.6546,49.27814 4.2142,21.73921 0.8893,43.84295 -9.5819,63.70061 -13.6413,25.86928 -38.6864,44.89993 -66.6819,50.66852 -9.5967,1.97743 -32.6542,2.00154 -41.6792,0.0436 z m 46.387,-15.85981 c 12.9303,-4.40104 23.871,-11.06183 33.008,-20.09555 13.1605,-13.01186 21.1076,-27.62002 23.977,-44.07411 4.7587,-27.28863 -2.9565,-54.16757 -21.0548,-73.35277 -7.288,-7.72561 -11.541,-10.89579 -22.3106,-16.63026 -11.726,-6.24367 -11.1172,-3.45289 -11.1125,-50.94286 0,-24.58686 0.4044,-41.441569 1.043,-43.741119 0.6079,-2.1889 3.3472,-6.23425 6.6022,-9.74999 l 5.5631,-6.00888 h -40.1077 c -22.0592,0 -40.1077,0.27505 -40.1077,0.61122 0,0.33617 1.8019,2.76338 4.0042,5.39381 7.3599,8.7906 6.9828,5.97593 6.9896,52.168239 l 0.01,41.67327 -2.6257,3.12058 c -1.4442,1.71631 -4.4817,4.06691 -6.75,5.22354 -11.2648,5.74398 -25.2547,18.50839 -32.239,29.41495 -9.8039,15.30949 -13.9124,31.11747 -13.0976,50.39438 0.6118,14.47329 2.7737,23.18872 8.6527,34.88142 11.2265,22.32832 31.3979,37.9131 56.5596,43.69884 4.0676,0.93531 10.6701,1.27636 20.5,1.05894 12.6448,-0.27969 15.5237,-0.66913 22.5,-3.04365 z m -39.4398,-9.05681 c -15.6093,-2.96247 -26.2129,-8.81838 -37.7745,-20.86128 -13.4676,-14.02818 -20.2934,-31.15483 -20.2801,-50.8853 0,-4.56068 0.474,-9.97893 1.0465,-12.04055 1.9462,-7.00766 -0.7592,-6.75161 71.3331,-6.75161 38.5611,0 65.4948,0.38407 66.9974,0.95537 4.9605,1.88599 6.1217,5.32736 6.0736,18.00065 -0.049,12.90144 -2.2511,22.73274 -7.3582,32.84981 -9.1334,18.09322 -26.7472,32.59326 -45.9139,37.79721 -8.0567,2.18748 -25.0702,2.654 -34.1239,0.9357 z m 42.9725,-23.05566 c 3.1781,-1.64345 5.9673,-6.09951 5.9673,-9.53342 0,-1.18231 -1.5869,-3.7366 -3.5265,-5.67619 -3.1291,-3.12911 -3.9462,-3.45974 -7.25,-2.93376 -9.3375,1.48653 -11.2895,13.90886 -2.8406,18.07701 3.8845,1.91631 4.0693,1.91791 7.6498,0.0664 z m -41.5595,-18.90743 c 3.5621,-1.48836 7.5268,-7.58164 7.5268,-11.56793 0,-7.10418 -6.2847,-12.99749 -13.8676,-13.00398 -3.7427,-0.003 -4.9233,0.55184 -8.25,3.87862 -3.4116,3.41154 -3.8824,4.45393 -3.8824,8.5957 0,10.51518 8.6707,16.19335 18.4732,12.09759 z m -8.9484,-67.8508 c -4.109,-4.10905 -4.5294,-7.56486 -1.5206,-12.49977 3.0896,-5.06743 9.318,-6.66117 14.8508,-3.80007 5.3867,2.7856 6.9032,11.41945 2.8362,16.14766 -1.7892,2.08 -3.4718,2.79592 -7.4752,3.1806 -4.8662,0.46758 -5.3711,0.29163 -8.6912,-3.02842 z m 21.4752,-32.97826 c -7.5519,-3.94246 -5.3871,-15.02506 3.2036,-16.40031 3.202,-0.5126 4.1162,-0.18031 6.75,2.45349 2.0507,2.05072 3.0464,4.03381 3.0464,6.06755 0,6.19712 -7.5068,10.74698 -13,7.87927 z m 166.5,-21.00579 18,-10.2408 0.269,-21.57779 c 0.2443,-19.5939 0.1064,-21.71903 -1.5,-23.11377 -2.719,-2.36078 -35.1221,-20.809869 -36.528,-20.797679 -0.6826,0.006 -5.516,2.39199 -10.741,5.30238 -5.225,2.9104 -12.2,6.78688 -15.5,8.6144 -3.3,1.82752 -7.4625,4.414349 -9.25,5.748499 l -3.25,2.42574 v 20.70857 c 0,20.38588 0.035,20.73081 2.25,22.13618 1.2375,0.78519 6.75,3.95432 12.25,7.04252 5.5,3.08819 11.125,6.33128 12.5,7.20687 3.1832,2.02704 12.3227,6.80701 12.992,6.79488 0.2794,-0.005 8.608,-4.61756 18.508,-10.25 z M 140.358,339.37641 c -1.4972,-1.90332 -1.9401,-3.45995 -1.4922,-5.24441 1.2079,-4.81279 1.9373,-5.04888 15.5986,-5.04888 h 12.8775 v -22.54966 c 0,-23.88109 0.5343,-27.06038 4.9446,-29.42069 1.132,-0.6058 9.9976,-1.02965 21.5374,-1.02965 h 19.6135 l 2.4523,2.64603 2.4522,2.64602 v 23.85398 23.85397 h 5.5 5.5 V 296.5062 263.92928 l 2.9231,-2.92308 2.923,-2.92308 h 19.6224 c 19.5003,0 19.6377,0.0153 22.0769,2.45455 l 2.4546,2.45454 v 33.09772 33.09771 l 5.0117,-0.30226 5.0118,-0.30226 0.2382,-71.33669 0.2383,-71.33669 2.8058,-2.41331 c 2.7573,-2.3717 3.1401,-2.41331 22.2029,-2.41331 20.6461,0 23.4974,0.5232 25.381,4.65733 0.7802,1.71226 1.1103,23.39999 1.1103,72.94199 v 70.5052 l 5.25,-0.30226 5.25,-0.30226 0.1686,-95.70572 c 0.093,-52.63815 0.462,-96.63058 0.8208,-97.76097 1.3543,-4.26692 5.145,-5.03331 24.8958,-5.03331 10.1665,0 19.6173,0.43067 21.0018,0.95704 5.8552,2.22613 5.6349,-1.79069 5.6087,102.26231 l -0.024,95.28065 7.6172,0.0181 c 6.7704,0.0161 7.828,0.27853 9.5141,2.36079 2.4536,3.03001 2.4132,6.60492 -0.103,9.12111 -1.9807,1.98074 -3.3333,2 -140.4274,2 H 142.4871 Z m 63.9839,-30.29329 v -20 h -11.5 -11.5 v 20 20 h 11.5 11.5 z m 61,-9.5 v -29.5 h -11.5 -11.5 v 28.83334 c 0,15.85833 0.3,29.13333 0.6667,29.5 0.3666,0.36666 5.5416,0.66666 11.5,0.66666 h 10.8333 z m 62,-37.53173 v -67.03174 l -11.75,0.28174 -11.75,0.28173 -0.194,65.5 c -0.1067,36.025 -0.01,66.0625 0.2186,66.75 0.2984,0.90388 3.6056,1.25 11.944,1.25 h 11.5314 z m 62,-25.46827 v -92.5 h -11.5 -11.5 v 92.5 92.5 h 11.5 11.5 z M 77.841897,322.19308 c -8.9757,-4.14254 -13.6217,-14.27399 -10.4532,-22.79486 0.5758,-1.5483 15.2694,-17.06133 32.652503,-34.4734 l 31.6057,-31.65831 -3.5467,-4.84169 c -5.1407,-7.01764 -9.3069,-15.70859 -11.9085,-24.8417 -2.9788,-10.45731 -3.2769,-31.46547 -0.5889,-41.5 2.47,-9.22049 9.7898,-23.40006 15.9657,-30.92781 9.9239,-12.09633 27.0884,-22.95261 42.2734,-26.73727 11.0386,-2.75121 34.5559,-2.49364 45,0.49287 20.419,5.83884 40.0574,22.32545 49.8682,41.86475 1.434,2.85589 3.7873,9.15589 5.2296,14 2.1818,7.32764 2.6276,10.82369 2.6532,20.80746 0.06,23.30668 -6.9844,40.21814 -23.7508,57.01852 -10.2514,10.27229 -18.7552,15.72424 -32.0002,20.51596 -7.9051,2.85988 -10.5574,3.31373 -21.802,3.73062 -13.7467,0.50966 -21.4053,-0.46721 -31.037,-3.95883 l -5.8391,-2.11671 -32.1609,32.11946 c -21.591,21.56306 -33.382903,32.62421 -35.878903,33.65522 -4.954,2.04638 -11.3837,1.90648 -16.2821,-0.35428 z m 40.993503,-43.10346 29.981,-29.99351 -3.2559,-3.25589 -3.2559,-3.25589 -20.2385,20.4994 c -11.1312,11.27467 -24.914903,25.33983 -30.630403,31.25592 -10.1714,10.52827 -10.3537,10.79883 -8.5879,12.75 0.9923,1.09641 2.7496,1.99347 3.9053,1.99347 1.422,0 11.7942,-9.69691 32.082303,-29.9935 z m 94.6895,-32.84774 c 21.3665,-6.32799 38.8875,-23.11583 45.3437,-43.44637 7.8533,-24.73048 0.7035,-51.20184 -18.6757,-69.144 -13.5966,-12.58835 -29.5253,-18.25031 -48.7538,-17.32985 -17.5813,0.8416 -30.782,6.59815 -43.14,18.81242 -7.6513,7.56227 -12.9544,16.0675 -16.7428,26.85267 -2.3664,6.73674 -2.6678,9.0675 -2.6631,20.59637 0.01,13.79112 1.3121,20.24711 5.9699,29.5 8.7098,17.3026 26.3909,31.38297 44.6097,35.52505 8.5133,1.93553 25.1584,1.26767 34.0521,-1.36629 z m 80.8224,-125.78042 c -22.3235,-8.04038 -30.6537,-34.003579 -17.3438,-54.055889 4.522,-6.81261 11.6601,-11.6965 20.3235,-13.90518 17.5737,-4.48036 35.0991,3.75923 42.7154,20.08274 2.4175,5.18126 2.7983,7.22808 2.7909,14.99998 -0.01,7.79054 -0.3798,9.75832 -2.7719,14.642859 -3.3672,6.8758 -9.9581,13.14417 -17.5444,16.68569 -7.2013,3.36182 -21.0269,4.12246 -28.1697,1.5498 z m 23.115,-14.17257 c 14.9455,-7.807659 15.7869,-28.804119 1.5079,-37.632109 -5.5734,-3.4458 -14.1802,-4.5367 -20.1774,-2.55746 -5.4453,1.79711 -11.7913,8.55612 -13.3881,14.25949 -3.0944,11.05225 0.9655,20.783709 10.8185,25.930939 7.2826,3.80448 13.9553,3.80421 21.2391,-8.6e-4 z"
       id="path2" />
  </g>
</svg>
